<?xml version="1.0" encoding="UTF-8"?>
<svg viewBox="0 0 300 300" xmlns="http://www.w3.org/2000/svg">
  <!-- Background Circle -->
  <circle cx="150" cy="150" r="140" fill="#ffffff" stroke="#4CAF50" stroke-width="8"/>
  
  <!-- Medical Cross -->
  <g transform="translate(150, 150) scale(0.5) translate(-150, -150)">
    <rect x="135" y="75" width="30" height="150" rx="8" fill="#4CAF50"/>
    <rect x="75" y="135" width="150" height="30" rx="8" fill="#4CAF50"/>
  </g>
  
  <!-- Brain/Circuit representing AI -->
  <g transform="translate(150, 150) scale(0.7) translate(-110, -90)">
    <path d="M80,40 C40,40 20,80 20,120 C20,160 40,180 90,180 C140,180 160,160 160,120 C160,80 140,40 100,40" 
          fill="none" stroke="#3F51B5" stroke-width="8" stroke-linecap="round"/>
    <circle cx="50" cy="80" r="6" fill="#3F51B5"/>
    <circle cx="90" cy="60" r="6" fill="#3F51B5"/>
    <circle cx="130" cy="80" r="6" fill="#3F51B5"/>
    <circle cx="70" cy="120" r="6" fill="#3F51B5"/>
    <circle cx="110" cy="120" r="6" fill="#3F51B5"/>
    <circle cx="60" cy="150" r="6" fill="#3F51B5"/>
    <circle cx="120" cy="150" r="6" fill="#3F51B5"/>
    <line x1="50" y1="80" x2="90" y2="60" stroke="#3F51B5" stroke-width="3"/>
    <line x1="90" y1="60" x2="130" y2="80" stroke="#3F51B5" stroke-width="3"/>
    <line x1="50" y1="80" x2="70" y2="120" stroke="#3F51B5" stroke-width="3"/>
    <line x1="130" y1="80" x2="110" y2="120" stroke="#3F51B5" stroke-width="3"/>
    <line x1="70" y1="120" x2="110" y2="120" stroke="#3F51B5" stroke-width="3"/>
    <line x1="70" y1="120" x2="60" y2="150" stroke="#3F51B5" stroke-width="3"/>
    <line x1="110" y1="120" x2="120" y2="150" stroke="#3F51B5" stroke-width="3"/>
  </g>
  
  <!-- Document Icon -->
  <g transform="translate(180, 180)">
    <rect x="-20" y="-25" width="40" height="50" rx="5" fill="white" stroke="#3F51B5" stroke-width="3"/>
    <line x1="-10" y1="-10" x2="10" y2="-10" stroke="#3F51B5" stroke-width="2"/>
    <line x1="-10" y1="0" x2="10" y2="0" stroke="#3F51B5" stroke-width="2"/>
    <line x1="-10" y1="10" x2="5" y2="10" stroke="#3F51B5" stroke-width="2"/>
  </g>

  <!-- Pulse Line -->
  <g transform="translate(150, 215) scale(0.8)">
    <path d="M-100,0 C-80,-20 -70,20 -50,0 C-30,-20 -20,20 0,0 C20,-20 30,20 50,0 C70,-20 80,20 100,0" 
          fill="none" stroke="#FF5722" stroke-width="4" stroke-linecap="round"/>
  </g>
</svg>